<svg xmlns="http://www.w3.org/2000/svg" viewBox="0 0 24 24" fill="none" stroke="#d97706" stroke-width="1.5" stroke-linecap="round" stroke-linejoin="round">
  <path d="M14 14.76V3.5a2.5 2.5 0 0 0-5 0v11.26a4.5 4.5 0 1 0 5 0z" stroke-dasharray="60" stroke-dashoffset="60">
    <animate attributeName="stroke-dashoffset" values="60;0;0;60" keyTimes="0;0.25;0.8;1" dur="4s" repeatCount="indefinite" />
  </path>
  <path d="M12 15a1 1 0 1 0 0-2 1 1 0 0 0 0 2z" fill="#d97706" opacity="0">
    <animate attributeName="opacity" values="0;0;1;1;0" keyTimes="0;0.2;0.25;0.8;1" dur="4s" repeatCount="indefinite" />
  </path>
  <line x1="12" y1="6" x2="12" y2="12" stroke-dasharray="6" stroke-dashoffset="6">
    <animate attributeName="stroke-dashoffset" values="6;6;0;6;6;6" keyTimes="0;0.25;0.4;0.7;0.8;1" dur="4s" repeatCount="indefinite" />
  </line>
  <g opacity="0">
    <animate attributeName="opacity" values="0;0;1;1;0" keyTimes="0;0.4;0.5;0.8;1" dur="4s" repeatCount="indefinite" />
    <path d="M4 8l2-2m0 0l2 2m-2-2v4" stroke-width="1" stroke-dasharray="15" stroke-dashoffset="15">
      <animate attributeName="stroke-dashoffset" values="15;15;0;0;15" keyTimes="0;0.4;0.6;0.8;1" dur="4s" repeatCount="indefinite" />
    </path>
    <path d="M20 16l-2 2m0 0l-2-2m2 2v-4" stroke-width="1" stroke-dasharray="15" stroke-dashoffset="15">
      <animate attributeName="stroke-dashoffset" values="15;15;0;0;15" keyTimes="0;0.45;0.65;0.8;1" dur="4s" repeatCount="indefinite" />
    </path>
    <path d="M5 18l2 2m0 0l2-2m-2 2v-4" stroke-width="1" stroke-dasharray="15" stroke-dashoffset="15">
      <animate attributeName="stroke-dashoffset" values="15;15;0;0;15" keyTimes="0;0.5;0.7;0.8;1" dur="4s" repeatCount="indefinite" />
    </path>
  </g>
</svg>
